<svg xmlns="http://www.w3.org/2000/svg" fill-rule="evenodd" stroke-linejoin="round" stroke-miterlimit="1.414" clip-rule="evenodd" viewBox="0 0 32 32"><rect width="32" height="32" fill="none"/><path  fill='#FFFFFF' fill-rule="nonzero" d="M8.414,24.994l5.586,0c0,0 0.122,0.002 0.223,0.025c0.561,0.128 0.928,0.811 0.701,1.358c-0.135,0.328 -0.457,0.571 -0.812,0.611c-0.049,0.006 -0.062,0.005 -0.112,0.006l-8,0c-0.019,0 -0.037,-0.001 -0.056,-0.001c-0.05,-0.004 -0.062,-0.004 -0.111,-0.013c-0.423,-0.071 -0.778,-0.439 -0.827,-0.874c-0.005,-0.049 -0.005,-0.062 -0.006,-0.112l0,-8c0.019,-0.661 0.743,-1.189 1.383,-0.924c0.327,0.136 0.571,0.458 0.611,0.812c0.005,0.05 0.005,0.062 0.006,0.112l0,5.586l18.294,-18.294c0.058,-0.046 0.112,-0.1 0.175,-0.139c0.501,-0.315 1.265,-0.086 1.476,0.516c0.099,0.284 0.063,0.608 -0.097,0.862c-0.04,0.064 -0.093,0.117 -0.14,0.176l-18.294,18.293Z"/></svg>